<mxfile host="app.diagrams.net" modified="2023-05-07T16:50:05.707Z" agent="Mozilla/5.0 (Windows NT 10.0; Win64; x64) AppleWebKit/537.36 (KHTML, like Gecko) Chrome/112.0.0.0 Safari/537.36" etag="mkTtrRliLwIJ4Ph0cWFO" version="21.2.9" type="device">
  <diagram name="Page-1" id="7saLfSNjkc3maJje4k0e">
    <mxGraphModel dx="1434" dy="699" grid="1" gridSize="10" guides="1" tooltips="1" connect="1" arrows="1" fold="1" page="1" pageScale="1" pageWidth="850" pageHeight="1100" math="0" shadow="0">
      <root>
        <mxCell id="0" />
        <mxCell id="1" parent="0" />
        <mxCell id="LO3GSTm7Ehk3XowKtPwM-9" style="edgeStyle=orthogonalEdgeStyle;rounded=0;orthogonalLoop=1;jettySize=auto;html=1;entryX=0;entryY=0.5;entryDx=0;entryDy=0;exitX=1;exitY=0.5;exitDx=0;exitDy=0;" parent="1" source="LO3GSTm7Ehk3XowKtPwM-44" target="LO3GSTm7Ehk3XowKtPwM-8" edge="1">
          <mxGeometry relative="1" as="geometry">
            <mxPoint x="330" y="433.48571428571427" as="sourcePoint" />
          </mxGeometry>
        </mxCell>
        <mxCell id="LO3GSTm7Ehk3XowKtPwM-10" style="edgeStyle=orthogonalEdgeStyle;rounded=0;orthogonalLoop=1;jettySize=auto;html=1;entryX=0;entryY=0.5;entryDx=0;entryDy=0;exitX=1;exitY=0.5;exitDx=0;exitDy=0;" parent="1" source="LO3GSTm7Ehk3XowKtPwM-45" target="LO3GSTm7Ehk3XowKtPwM-8" edge="1">
          <mxGeometry relative="1" as="geometry">
            <mxPoint x="330" y="493.48571428571427" as="sourcePoint" />
          </mxGeometry>
        </mxCell>
        <mxCell id="LO3GSTm7Ehk3XowKtPwM-13" style="edgeStyle=orthogonalEdgeStyle;rounded=0;orthogonalLoop=1;jettySize=auto;html=1;entryX=0.5;entryY=0;entryDx=0;entryDy=0;" parent="1" source="LO3GSTm7Ehk3XowKtPwM-8" target="LO3GSTm7Ehk3XowKtPwM-12" edge="1">
          <mxGeometry relative="1" as="geometry" />
        </mxCell>
        <mxCell id="LO3GSTm7Ehk3XowKtPwM-8" value="" style="image;html=1;image=img/lib/clip_art/computers/Database_128x128.png" parent="1" vertex="1">
          <mxGeometry x="470" y="440" width="50" height="49" as="geometry" />
        </mxCell>
        <mxCell id="LO3GSTm7Ehk3XowKtPwM-11" value="Question-Answer Database" style="text;html=1;strokeColor=none;fillColor=none;align=center;verticalAlign=middle;whiteSpace=wrap;rounded=0;" parent="1" vertex="1">
          <mxGeometry x="445" y="400" width="100" height="30" as="geometry" />
        </mxCell>
        <mxCell id="LO3GSTm7Ehk3XowKtPwM-27" style="edgeStyle=orthogonalEdgeStyle;rounded=0;orthogonalLoop=1;jettySize=auto;html=1;entryX=0.5;entryY=0;entryDx=0;entryDy=0;entryPerimeter=0;" parent="1" source="LO3GSTm7Ehk3XowKtPwM-37" target="LO3GSTm7Ehk3XowKtPwM-16" edge="1">
          <mxGeometry relative="1" as="geometry" />
        </mxCell>
        <mxCell id="LO3GSTm7Ehk3XowKtPwM-12" value="" style="shape=image;verticalLabelPosition=bottom;labelBackgroundColor=default;verticalAlign=top;aspect=fixed;imageAspect=0;image=data:image/png,iVBORw0KGgoAAAANSUhEUgAAAOEAAADhCAMAAAAJbSJIAAAAhFBMVEX///8AAACOjo6/v7/FxcWbm5tSUlJgYGBlZWUpKSnJycnm5ub8/Pz19fXR0dHMzMzu7u6kpKTZ2dm3t7d6enr29vZZWVkuLi7f3982Nja0tLQkJCRERETv7+9xcXFqamqKioqAgIAXFxerq6uWlpafn58MDAxMTEw6OjoRERFGRkYcHBzAJ+ohAAAO6klEQVR4nO1daVfqMBAVQVQ2sSCLyFIX1Of//39PULCzZWaSFvQc7kdtaW6bzJ7J2dkJJ5xwwgknnHDCCSds0el2O51jD6IStBsvefP6cV3b4GM6yp8b7WOPqTxMnpY1FqOL7NhjKwHZ6pGn9428d+wRJqF/Hqa3xft5/9jjjEV2qdP7nq5/crb2mlZ+G7z+OY598/fb4fJvydZnL78Nzo89ajuyjxiCtdr65tgjN+I8jt8G+bHHbkH3IZ5grfbWPfb4VWQp/Db47UK1nkqwVqsfm0MQ9/LAx4vnem/S7vfbWW/wvBjLVz4dm0UAT9Kghw2yvuat85lw9csxxm6CQFA2rrM8RHE+aQ3u7+8H9dZk/jsEEL8GX+6CN92zH/L5dvi2Bn+Zjc7rx7bQbyIn3MBhHyzr4fdVKfrMgHLbeFw23uhospYKx5lZtbXfPBxr+aRKIhJooGLhuT13UayNDh8ZoFLm1vcDDR/F2ujA33FORuB8yY1rJ8PPOXJQoUP8Xd8bbrviAXsMKmLDoIWf7fLX7/Iofp8YHewzYq3t+oKiqWfBgXxmPEbPY2/8CxDguTJWBXTQQx2Gc9sdsCK4rI7YHhfwkU3zjR0t3jFtXi4Xy8tm8DtPq1+M6IlmNyDgTNbWi6eb4g9N6rlI82NeAakiBvB5VrMxky21j2dWVPUH0pyumOIUPMw4R/tCOuoTi4Cx0H1hEyGPlU7UCXyYTRPK3sS59j0GHMe3dB4yoLQYWm6Rw1UmS4xbv6NEFiHAJxnc8Mk/id+b0d26G9J7q9GLndYKhX+X6j1dZnTfcJiZxEys1RoJRATUR/QxqkfxIvLzfYS7V/IDJUubSc6N8kO5qyGmhK/cUSYyALulYUBLyE2Ev4PsI01jXPYL/CvlRZJbU26UG4R8ig556Xvcx43jFv9OSUHVCV0BO8wCt8k+0iq6ggh/xXKM8JCxLCvDGzFNMUpJbmO5XIK3mAWrR6TZ1mak7hfGiWNCK3ua9mtnauhWWIYr8YZk2YBd08RocUeLF7F3yT5SXkIJXw/+5Djpx9pafROnDSeij9Qsp7oETZBWwk+xiRcARpSJcd5ZaUYWTFElqH1D+pqK0rZ0qSGUYy1DRS8xOhQ+4EcKsCJ3XfEXLlTV3F98fpqxzVSF+jm27Ej4gq+r4I/f8Tepr/knQmVxN5CwieKHf2T3KSbQiyEMJ9xdukAvzpcHw6yDRnJUVopdTtupBhYBYci8GH3iZcj80ac0XImrCIIdJg39NqE/rjNcqkGxLhOhUsUSuDpkHEtgbK6dMeJi+KAHKXij6UNRLdBW9utZ6paP9z/iYahLjfo7S7Cm2edwvbt9MSouCsEYO0Ndik+CJX9BHwvkvkzhviKI31Mcq5XhpRqk6C5C/DYIfJu8eJ3XNiVzFOTnjQz11S9HqH4gBxuhuvYR7OLHQIfHyPBaeYocoYKQZDFUZz7DDc8dpM9KYejJ4l/wPwGucTmJWNfjGpkSGDIB7DwQDHpnNQd4R646F5TOIgmQdIYkYFZrbmeZrDk4xzIPjiMAXNJMDKhUhi1SmfjjOFLuO1DNASwFTzEWMqGozk5jyESoihZaIMWBNQcIlTjyUKjSSfPhnQw7NEI1RJPEnKYC6sLh56PYKCOqExjSEPE/RszLy3FZfBuA4audIdRSnIiKZtgjmYG1IOTlCGZBc4Bx2BnC2NMjd0kkwz4Nb8iO41xM+T/upVLkLIXantUycQxpZiCcXOuJOYGd5gAM7ZIG/hhr28cwpEGtteo4ankdoFn0RDQe39cvsdf4GWacj/SgBleU3BwQy/xQGcC5xJuzXoZzyUfSc8ByeudTc4Claq6rA7pI0NlOhiRtW4Aeo6IG0A45WKjWigeY1hGe72Io67YtJHVRgMWLtO9+61nucjAM5I534FQ+BFdJQ2BNdkPxJURJwgz3CvWaG9qqS5X5UC0ZCUdztjAShOJJUqJGhmMq7bfRMyY6qjt3ymS3KwvgVEoul5EhweMuz5cR622mJ77DqWhzYhm8KSnOFcmw+KGoAaDnTrtCUmsLc5gG3CWJpyiGyEdiaqH1AhTZkHu3EoS+ofRWIxgyyTXGENcD15IhZ/bwYQxKusrN8J1XetSZ0isxBUPOnD6vhqEQDDzjPkmkIWf2napguAgl15ighh40azGawzpNYUJGusrDUJ139JOsdROTqUIzqouyv6FhsNwWIT3LzSSabYZpyQyfjbUjdDmqhlyXFCWxARcCuHFZWvRGho5dLR1aRKX6e8T2M6UQYdJJmitGhp7tEMy+mGutlivHd5gKMsAd0iMOw1CvQsVy2FSuAMwiaaIciqFqyGHnzJJ/ApaUpGMOx1Az5HAO0iDZgKKRkkdGhp7a3T1DEpUJKtQOunylPwl6NYIwrJJhqw4LK2vh+iiczNVjGfAOQV9XybDOubqyYYtVqSFPCq4XQgNhhvu6vliGjF8VqI9CoS7HowLXA4Yk4pjOkPOrxOpNNE91FxNmmQW/rnjJG7Z8ymDIGXJSCXwOrnpQHwW9C97tQuU2SGmVw5BzdfloFRqNHrCBvhdvVWDtBaZGSQy5ihveLIOmjZ4nsOx/JcW1RaVVGsPPBY9qXNfsvdBd0PYKkqpE3r+gPfaW+wv3DD3FdDxDkrPg5QJMbemVplCMCQqDKSrcqY1SGZ51wVTlpxSMKujOPpJiktHEJD0HFTCEX1EIOAEz6Ep9GNo3Ja8mGrfeVjyXzBBkHwWGefEafrECILcrIJxoQGg5PwZDOE31zcW4B1vAuGcaB78cgSGcdoY6zByO+T0UFaL21R6HYwi3lxi2FeES4XBAWawJOSBDsLAswWHsv4TvYeLWh2YIqhRNsQUcNlcCdXxNiFbnXUQiQ2iBWB5IOlBosUiuJuSA3xAKR1Mcmpgsap6cLse1vXz+J4IdxxA67qZeFB0SLXnQ3gzj7uhFFoRFGQxte6CY/tVqMQGzHC0RTBB7OhxDrqR8pd5El6Mam0c1RZEMwXOtq4MpYTW0wGf2GYReKemeeEiGJKC8wUhdxdxeEXEJ0/dxwFkqtZLXa0KYWjbeZ+NUzEEZSg1N9IAdjj6wzT54M6EMhua8pVieY2gORGtK0WZEydSLY2jLXYfvCg6XARfmKMxvsTNIHEMQwbWlu8+0jhF6goBpkbib37RyL5HhreUigjzI0LSHmRhG4403zZR7vSTapWDCrKwM1X7iUfvQl336t6v+T2Y2jiGoVzFv69YI1pRypy3krS97bKPJaQyha2Gt+A4Jmh/oEYNAmGOLrzeextBUu00A41fyLiQ97hPqOruTr2kMgfVl3uIF3sv4rCW2uzX0ZZG6Yv0onSSGsCrW3IoRxJo3/q+8f1V3A9nuz0U7J4khTG6YG7nkxbu2Z04Ftj2oJVptaoICWzWJIbQRrQSh8/T95eVtD+EeVx1m3wWUBykMYaca+45nYBfv37fcByHgBtL5Teq5UhhCxW3v5wcYFpSovE9LcAOpjJpRvz+BIfyEhrwMy7C4ZgL9SBg30Bi7SWAIV7ij8QAwHqEkYfdLbjFGgozbm84K3niGKEvs6GoLvhTWMXIjN+BXUV3fFJRnNENkenmamebgxZN/B7qP75Yjtdfk0qZohsg/8JzBB74+kzlmfKAdtnKJsbkD5WmxDFGkxdXCHFht7LainuhfTTPmGwdbsEUyxF66qw0PTM7wiiBkUyMozmQcQ9yvSy9SKAIuYWl8cqdZAGHjUyJD4uA524ODe8UiFXk7eQG6ub//FQdDQjCwzlkASRj4/q3AwZRbLNXC3YIRYWdIAtbuZrs5uD10ZfBkI8PRB0WxbWZIG92627RCORU0aAOnUxkC5MCYtzKkAXnnkW9nOLyjOCUTvjeZP8lhY9inbYhiWrPD9aWNdUCCo4bIOHUcTQyZcIM50F0EnAj6dENKHlvhDJiRGhjecNG7qNNKobAySCpgqOlFkKwQJpYrZthi+1BEnv2oPJtBtlsfeud1QZGSbwFm0uuAV02xLcvhtLOpm/rlpwUzVHOUUoCRltpbrKboRujIaCjxXGlRg9LZZuhrktB0HqmAso5YlgP9TFRStwpTzmVHG8/N/UOCkB1LJkJFz5EkN6Wd+YxedhlHgMrHnfBGiULQ5zBRYA8z+Yxsxi74Bu6e+A0lBeY31TBQVM1TUMlAPhtQbKUUPLzgrYTTMvDO/pSz3AKBVtlBziv9gBtgseA6lRpADpaHHGTZ+dSb2dtA2kLncb9TF0+LD3YzEZfha4qOgCDK2d39/CzU1EypPhJ6tV2Vx++MbEONWIuBxKPmsXCZ58fnZJEOQeZpbeYTYZ7mxwi0eHA9rOAIeaY4ymGiyn0PDUeTIel7eVvR6fGMGdI0ThQ52MiaaAhof1IaiyC4YZ4byla6ucTPpsvg+o0RcWawzsCFwrEj56cEEw0BqYpKT1TH/Sd2Aw0Ibf5Ezy30CpwvwKkTc5SMA11BYV9fsCQnL3Ldn6Fj6RdQzLccG03GnXzS+dVto/2Tup5n94tQn0pzyRI+A7CEM/eUB4arMWfN5fKy+TATvaMvLO3KGmVYYw8e8yDUetKGN4e2xtZiWSGUIEKnkVrgObEIWzPVnE9NoJ+GGIDr9FjiU1TGCeFO7OekwXd6LN5sHXt4cAwcqfsCPnwhTULwX0VsWJhaT0OsnaqMehTlnF5qBlsOG4IzCEl9maqVPcXEyXHl+XGaqHAcP1Ie2rmL4tQ8zSaMkW/ca1s2OgPXhzTqMy7TVGpMxodOfWg8Ou0T74bVyKakykglpKBfP79ENMfLW9YznIWVWueWNdi9ZUAVod1r1e+fnu7rvezLtBbCvytxPWY5f8chDO44SDbs+Jkuq07rXAptrw4+cDsCJ5NMF0/1rN/tdufzrP40lD3P3zJFBcTZdwAl5tUrAX8mtAMVxH5LxlzZmBfGtOTYfTXwW+l7VBodLRG0RtKGdUIFyYFxp574y0EvqfpNyMQDGyVYDo//XahrNTEA078zQQto6Oc1faNZaXaiSmT6tvVayG79C+gMwiHl9fDPfr4fdBorwcQeXfx+A8aKbva0WjZ3qaz1dDS8bfzpuXnCCSeccMIJJ5xwwgknbPAfNM3Lc/OddgwAAAAASUVORK5CYII=;" parent="1" vertex="1">
          <mxGeometry x="630" y="489" width="50" height="50" as="geometry" />
        </mxCell>
        <mxCell id="LO3GSTm7Ehk3XowKtPwM-16" value="" style="sketch=0;points=[[0,0,0],[0.25,0,0],[0.5,0,0],[0.75,0,0],[1,0,0],[0,1,0],[0.25,1,0],[0.5,1,0],[0.75,1,0],[1,1,0],[0,0.25,0],[0,0.5,0],[0,0.75,0],[1,0.25,0],[1,0.5,0],[1,0.75,0]];points=[[0,0,0],[0.25,0,0],[0.5,0,0],[0.75,0,0],[1,0,0],[0,1,0],[0.25,1,0],[0.5,1,0],[0.75,1,0],[1,1,0],[0,0.25,0],[0,0.5,0],[0,0.75,0],[1,0.25,0],[1,0.5,0],[1,0.75,0]];outlineConnect=0;fontColor=#232F3E;gradientColor=#F34482;gradientDirection=north;fillColor=#BC1356;strokeColor=#ffffff;dashed=0;verticalLabelPosition=bottom;verticalAlign=top;align=center;html=1;fontSize=12;fontStyle=0;aspect=fixed;shape=mxgraph.aws4.resourceIcon;resIcon=mxgraph.aws4.chatbot;" parent="1" vertex="1">
          <mxGeometry x="616" y="690" width="78" height="78" as="geometry" />
        </mxCell>
        <mxCell id="LO3GSTm7Ehk3XowKtPwM-28" value="OpenAI" style="text;html=1;strokeColor=none;fillColor=none;align=center;verticalAlign=middle;whiteSpace=wrap;rounded=0;" parent="1" vertex="1">
          <mxGeometry x="680" y="499" width="60" height="30" as="geometry" />
        </mxCell>
        <mxCell id="LO3GSTm7Ehk3XowKtPwM-29" value="ChatBot" style="text;html=1;strokeColor=none;fillColor=none;align=center;verticalAlign=middle;whiteSpace=wrap;rounded=0;" parent="1" vertex="1">
          <mxGeometry x="694" y="714" width="60" height="30" as="geometry" />
        </mxCell>
        <mxCell id="LO3GSTm7Ehk3XowKtPwM-30" value="" style="verticalLabelPosition=bottom;html=1;verticalAlign=top;align=center;strokeColor=none;fillColor=#00BEF2;shape=mxgraph.azure.user;" parent="1" vertex="1">
          <mxGeometry x="252" y="700.5" width="57.5" height="57" as="geometry" />
        </mxCell>
        <mxCell id="LO3GSTm7Ehk3XowKtPwM-33" value="Ask question" style="text;html=1;strokeColor=none;fillColor=none;align=center;verticalAlign=middle;whiteSpace=wrap;rounded=0;" parent="1" vertex="1">
          <mxGeometry x="418" y="700.5" width="75" height="30" as="geometry" />
        </mxCell>
        <mxCell id="LO3GSTm7Ehk3XowKtPwM-34" value="Feed answer" style="text;html=1;strokeColor=none;fillColor=none;align=center;verticalAlign=middle;whiteSpace=wrap;rounded=0;" parent="1" vertex="1">
          <mxGeometry x="418" y="730.5" width="75" height="30" as="geometry" />
        </mxCell>
        <mxCell id="LO3GSTm7Ehk3XowKtPwM-35" value="" style="endArrow=classic;startArrow=classic;html=1;rounded=0;entryX=0;entryY=0.5;entryDx=0;entryDy=0;entryPerimeter=0;exitX=0.779;exitY=0.512;exitDx=0;exitDy=0;exitPerimeter=0;" parent="1" source="LO3GSTm7Ehk3XowKtPwM-30" target="LO3GSTm7Ehk3XowKtPwM-16" edge="1">
          <mxGeometry width="50" height="50" relative="1" as="geometry">
            <mxPoint x="450" y="767" as="sourcePoint" />
            <mxPoint x="500" y="717" as="targetPoint" />
          </mxGeometry>
        </mxCell>
        <mxCell id="LO3GSTm7Ehk3XowKtPwM-36" value="Non-technical" style="text;html=1;strokeColor=none;fillColor=none;align=center;verticalAlign=middle;whiteSpace=wrap;rounded=0;" parent="1" vertex="1">
          <mxGeometry x="172" y="714" width="80" height="30" as="geometry" />
        </mxCell>
        <mxCell id="LO3GSTm7Ehk3XowKtPwM-38" value="" style="edgeStyle=orthogonalEdgeStyle;rounded=0;orthogonalLoop=1;jettySize=auto;html=1;entryX=0.5;entryY=0;entryDx=0;entryDy=0;entryPerimeter=0;" parent="1" source="LO3GSTm7Ehk3XowKtPwM-12" target="LO3GSTm7Ehk3XowKtPwM-37" edge="1">
          <mxGeometry relative="1" as="geometry">
            <mxPoint x="655" y="539" as="sourcePoint" />
            <mxPoint x="655" y="690" as="targetPoint" />
          </mxGeometry>
        </mxCell>
        <mxCell id="LO3GSTm7Ehk3XowKtPwM-37" value="" style="sketch=0;html=1;dashed=0;whitespace=wrap;fillColor=#2875E2;strokeColor=#ffffff;points=[[0.005,0.63,0],[0.1,0.2,0],[0.9,0.2,0],[0.5,0,0],[0.995,0.63,0],[0.72,0.99,0],[0.5,1,0],[0.28,0.99,0]];verticalLabelPosition=bottom;align=center;verticalAlign=top;shape=mxgraph.kubernetes.icon;prIcon=api" parent="1" vertex="1">
          <mxGeometry x="630" y="590" width="50" height="48" as="geometry" />
        </mxCell>
        <mxCell id="LO3GSTm7Ehk3XowKtPwM-39" value="Company LLM API" style="text;html=1;strokeColor=none;fillColor=none;align=center;verticalAlign=middle;whiteSpace=wrap;rounded=0;" parent="1" vertex="1">
          <mxGeometry x="680" y="599" width="60" height="30" as="geometry" />
        </mxCell>
        <mxCell id="LO3GSTm7Ehk3XowKtPwM-40" value="" style="verticalLabelPosition=bottom;html=1;verticalAlign=top;align=center;strokeColor=none;fillColor=#00BEF2;shape=mxgraph.azure.user;" parent="1" vertex="1">
          <mxGeometry x="242" y="583.5" width="57.5" height="57" as="geometry" />
        </mxCell>
        <mxCell id="LO3GSTm7Ehk3XowKtPwM-41" value="Technical" style="text;html=1;strokeColor=none;fillColor=none;align=center;verticalAlign=middle;whiteSpace=wrap;rounded=0;" parent="1" vertex="1">
          <mxGeometry x="162" y="597" width="80" height="30" as="geometry" />
        </mxCell>
        <mxCell id="LO3GSTm7Ehk3XowKtPwM-42" value="" style="endArrow=classic;startArrow=classic;html=1;rounded=0;entryX=0.005;entryY=0.63;entryDx=0;entryDy=0;entryPerimeter=0;exitX=0.87;exitY=0.65;exitDx=0;exitDy=0;exitPerimeter=0;" parent="1" source="LO3GSTm7Ehk3XowKtPwM-40" target="LO3GSTm7Ehk3XowKtPwM-37" edge="1">
          <mxGeometry width="50" height="50" relative="1" as="geometry">
            <mxPoint x="120" y="690" as="sourcePoint" />
            <mxPoint x="170" y="640" as="targetPoint" />
          </mxGeometry>
        </mxCell>
        <mxCell id="LO3GSTm7Ehk3XowKtPwM-44" value="" style="rounded=0;whiteSpace=wrap;html=1;" parent="1" vertex="1">
          <mxGeometry x="80" y="340" width="230" height="100" as="geometry" />
        </mxCell>
        <mxCell id="LO3GSTm7Ehk3XowKtPwM-45" value="" style="rounded=0;whiteSpace=wrap;html=1;" parent="1" vertex="1">
          <mxGeometry x="80" y="464" width="230" height="100" as="geometry" />
        </mxCell>
        <mxCell id="LO3GSTm7Ehk3XowKtPwM-46" value="Data" style="text;html=1;strokeColor=none;fillColor=none;align=center;verticalAlign=middle;whiteSpace=wrap;rounded=0;" parent="1" vertex="1">
          <mxGeometry x="416.5" y="597" width="75" height="30" as="geometry" />
        </mxCell>
        <mxCell id="LO3GSTm7Ehk3XowKtPwM-47" value="Response" style="text;html=1;strokeColor=none;fillColor=none;align=center;verticalAlign=middle;whiteSpace=wrap;rounded=0;" parent="1" vertex="1">
          <mxGeometry x="416.5" y="620" width="75" height="30" as="geometry" />
        </mxCell>
        <mxCell id="LO3GSTm7Ehk3XowKtPwM-48" value="Public" style="text;html=1;strokeColor=none;fillColor=none;align=center;verticalAlign=middle;whiteSpace=wrap;rounded=0;" parent="1" vertex="1">
          <mxGeometry x="80" y="464" width="60" height="30" as="geometry" />
        </mxCell>
        <mxCell id="LO3GSTm7Ehk3XowKtPwM-49" value="" style="sketch=0;pointerEvents=1;shadow=0;dashed=0;html=1;strokeColor=none;fillColor=#505050;labelPosition=center;verticalLabelPosition=bottom;verticalAlign=top;outlineConnect=0;align=center;shape=mxgraph.office.concepts.document;" parent="1" vertex="1">
          <mxGeometry x="112" y="495.5" width="28" height="37" as="geometry" />
        </mxCell>
        <mxCell id="LO3GSTm7Ehk3XowKtPwM-50" value="Wikipedia" style="text;html=1;strokeColor=none;fillColor=none;align=center;verticalAlign=middle;whiteSpace=wrap;rounded=0;" parent="1" vertex="1">
          <mxGeometry x="96" y="529" width="60" height="30" as="geometry" />
        </mxCell>
        <mxCell id="LO3GSTm7Ehk3XowKtPwM-51" value="" style="sketch=0;pointerEvents=1;shadow=0;dashed=0;html=1;strokeColor=none;fillColor=#505050;labelPosition=center;verticalLabelPosition=bottom;verticalAlign=top;outlineConnect=0;align=center;shape=mxgraph.office.concepts.document;" parent="1" vertex="1">
          <mxGeometry x="174" y="495.5" width="28" height="37" as="geometry" />
        </mxCell>
        <mxCell id="LO3GSTm7Ehk3XowKtPwM-52" value="CT.Gov" style="text;html=1;strokeColor=none;fillColor=none;align=center;verticalAlign=middle;whiteSpace=wrap;rounded=0;" parent="1" vertex="1">
          <mxGeometry x="160" y="529" width="60" height="30" as="geometry" />
        </mxCell>
        <mxCell id="LO3GSTm7Ehk3XowKtPwM-53" value="Company" style="text;html=1;strokeColor=none;fillColor=none;align=center;verticalAlign=middle;whiteSpace=wrap;rounded=0;" parent="1" vertex="1">
          <mxGeometry x="80" y="340" width="60" height="30" as="geometry" />
        </mxCell>
        <mxCell id="LO3GSTm7Ehk3XowKtPwM-54" value="" style="sketch=0;pointerEvents=1;shadow=0;dashed=0;html=1;strokeColor=none;fillColor=#505050;labelPosition=center;verticalLabelPosition=bottom;verticalAlign=top;outlineConnect=0;align=center;shape=mxgraph.office.concepts.document;" parent="1" vertex="1">
          <mxGeometry x="105" y="370" width="28" height="37" as="geometry" />
        </mxCell>
        <mxCell id="LO3GSTm7Ehk3XowKtPwM-55" value="&lt;font style=&quot;font-size: 10px;&quot;&gt;Internal document&lt;/font&gt;" style="text;html=1;strokeColor=none;fillColor=none;align=center;verticalAlign=middle;whiteSpace=wrap;rounded=0;" parent="1" vertex="1">
          <mxGeometry x="82" y="407" width="74" height="30" as="geometry" />
        </mxCell>
        <mxCell id="LO3GSTm7Ehk3XowKtPwM-56" value="" style="sketch=0;pointerEvents=1;shadow=0;dashed=0;html=1;strokeColor=none;fillColor=#505050;labelPosition=center;verticalLabelPosition=bottom;verticalAlign=top;outlineConnect=0;align=center;shape=mxgraph.office.concepts.document;" parent="1" vertex="1">
          <mxGeometry x="181" y="371.5" width="28" height="37" as="geometry" />
        </mxCell>
        <mxCell id="LO3GSTm7Ehk3XowKtPwM-57" value="&lt;font style=&quot;font-size: 10px;&quot;&gt;Clinical Trials Protocol&lt;/font&gt;" style="text;html=1;strokeColor=none;fillColor=none;align=center;verticalAlign=middle;whiteSpace=wrap;rounded=0;" parent="1" vertex="1">
          <mxGeometry x="156" y="407" width="86" height="30" as="geometry" />
        </mxCell>
      </root>
    </mxGraphModel>
  </diagram>
</mxfile>
